# xmcd
#
# Track frame offsets: 
#        150
#        20735
#        43756
#        65966
#        105162
#        133705
#        191059
#        217342
#        250691
#        294806
#
# Disc length: 4345 seconds
#
# Revision: 0
# Processed by: cddbd v1.5.2PL0 Copyright (c) Steve Scherf et al.
# Submitted via: ExactAudioCopy v0.99pb3
#
DISCID=9910f70a
DTITLE=Little Jimmy King - Live At B.B. King, LA
DYEAR=2008
DGENRE=Blues
TTITLE0=Intro - Here We Go Again
TTITLE1=Can't You See What You're Doing To Me
TTITLE2=Cross Cut Saw
TTITLE3=Stanging In The Rain
TTITLE4=Somebody
TTITLE5=Red House
TTITLE6=Don't Burn Down The Bridge
TTITLE7=Hand Me Downs
TTITLE8=Hey Joe
TTITLE9=Angel Of Mercy
EXTD=
EXTT0=
EXTT1=
EXTT2=
EXTT3=
EXTT4=
EXTT5=
EXTT6=
EXTT7=
EXTT8=
EXTT9=
PLAYORDER=
